<svg xmlns="http://www.w3.org/2000/svg" viewBox="0 0 26 26"><path fill="#ffffff" d="M15.3 4C15 4 14.7 4.2 14.6 4.5L9 21.3C8.9 21.7 9.2 22 9.5 22L10.4 22C10.7 22 11 21.8 11.1 21.5L16.7 4.7C16.8 4.3 16.5 4 16.2 4ZM5.1 7C4.9 7 4.8 7.1 4.7 7.2L0.1 12.7C0 12.9 0 13.1 0.1 13.3L4.7 18.8C4.9 19 5.2 19.1 5.5 18.9L6.1 18.4C6.3 18.2 6.4 17.8 6.2 17.6L2.3 13 6.1 8.4C6.3 8.2 6.3 7.8 6 7.6L5.5 7.1C5.4 7 5.2 7 5.1 7ZM20.7 7C20.6 7 20.6 7 20.5 7.1L19.9 7.6C19.7 7.8 19.6 8.2 19.8 8.4L23.6 13 19.8 17.6C19.6 17.8 19.6 18.2 19.9 18.4L20.5 18.9C20.7 19.1 21.1 19.1 21.3 18.8L25.9 13.3C26 13.1 26 12.9 25.9 12.7L21.3 7.2C21.2 7 20.9 7 20.7 7Z"/></svg>
