<svg xmlns="http://www.w3.org/2000/svg" viewBox="0 0 50 50"><path fill="#ffffff" d="M2.8 4C2.3 4.1 2 4.5 2 5L2 15C2 15.6 2.4 16 3 16L47 16C47.6 16 48 15.6 48 15L48 5C48 4.4 47.6 4 47 4L3 4C3 4 2.9 4 2.9 4 2.9 4 2.8 4 2.8 4ZM4 6L46 6 46 14 4 14ZM8 9C7.4 9 7 9.4 7 10 7 10.6 7.4 11 8 11 8.6 11 9 10.6 9 10 9 9.4 8.6 9 8 9ZM12 9C11.4 9 11 9.4 11 10 11 10.6 11.4 11 12 11 12.6 11 13 10.6 13 10 13 9.4 12.6 9 12 9ZM16 9C15.4 9 15 9.4 15 10 15 10.6 15.4 11 16 11 16.6 11 17 10.6 17 10 17 9.4 16.6 9 16 9ZM2 19L2 45C2 45.6 2.4 46 3 46L47 46C47.6 46 48 45.6 48 45L48 19 46 19 46 44 4 44 4 19ZM7.8 19C7.3 19.1 7 19.5 7 20L7 40C7 40.6 7.4 41 8 41L23 41C23.6 41 24 40.6 24 40L24 20C24 19.4 23.6 19 23 19L8 19C8 19 7.9 19 7.9 19 7.9 19 7.8 19 7.8 19ZM27 19L27 21 43 21 43 19ZM9 21L22 21 22 39 9 39ZM27 24L27 26 43 26 43 24ZM27 29L27 31 43 31 43 29ZM27 34L27 36 43 36 43 34ZM27 39L27 41 43 41 43 39Z"/></svg>
