<svg xmlns="http://www.w3.org/2000/svg" viewBox="0 0 50 50"><path fill="#ffffff" d="M7 4C4.3 4 2 6.3 2 9L2 33C2 35.7 4.3 38 7 38L11.1 38C11.2 39.2 11.2 40.3 10.9 41.3 10.5 42.4 9.8 43.4 8.5 44.2 8.1 44.4 8 44.8 8.1 45.3 8.2 45.7 8.6 46 9 46 13.2 46 18.1 43.8 20.6 38L43 38C45.7 38 48 35.7 48 33L48 9C48 6.3 45.7 4 43 4ZM7 6L43 6C44.7 6 46 7.3 46 9L46 33C46 34.7 44.7 36 43 36L20 36C19.6 36 19.2 36.3 19.1 36.7 17.5 40.9 14.7 42.9 11.8 43.7 12.2 43.1 12.6 42.5 12.8 41.9 13.3 40.3 13.3 38.6 13 36.8 12.9 36.3 12.5 36 12 36L7 36C5.3 36 4 34.7 4 33L4 9C4 7.3 5.3 6 7 6Z"/></svg>
