
<svg xmlns="http://www.w3.org/2000/svg" viewBox="0 0 64 64" ><path fill="#ffffff" d="M7 8C5.3 8 4 9.3 4 11L4 53C4 54.7 5.3 56 7 56L57 56C58.7 56 60 54.7 60 53L60 11C60 9.3 58.7 8 57 8ZM7 10L57 10C57.6 10 58 10.4 58 11L58 53C58 53.6 57.6 54 57 54L7 54C6.4 54 6 53.6 6 53L6 49.4 11.7 43.7C12.1 43.9 12.5 44 13 44 13.9 44 14.7 43.6 15.3 42.9L18 43.9C18 44 18 44 18 44 18 45.7 19.3 47 21 47 22.7 47 24 45.7 24 44 24 43.6 23.9 43.3 23.8 43L30.5 37.6C30.9 37.8 31.4 38 32 38 32.6 38 33.2 37.8 33.7 37.5L37.2 40.1C37.1 40.4 37 40.7 37 41 37 42.7 38.3 44 40 44 41.7 44 43 42.7 43 41 43 40.4 42.8 39.8 42.5 39.3L48.1 31.8C48.4 31.9 48.7 32 49 32 50.7 32 52 30.7 52 29 52 27.3 50.7 26 49 26 47.3 26 46 27.3 46 29 46 29.6 46.2 30.2 46.5 30.7L40.9 38.2C40.6 38.1 40.3 38 40 38 39.4 38 38.8 38.2 38.3 38.5L34.8 35.9C34.9 35.6 35 35.3 35 35 35 33.3 33.7 32 32 32 30.3 32 29 33.3 29 35 29 35.4 29.1 35.7 29.2 36L22.5 41.4C22.1 41.2 21.6 41 21 41 20.1 41 19.3 41.4 18.7 42.1L16 41.1C16 41 16 41 16 41 16 39.3 14.7 38 13 38 11.3 38 10 39.3 10 41 10 41.5 10.1 41.9 10.3 42.3L6 46.6 6 20 47 20C47.6 20 48 19.6 48 19 48 18.4 47.6 18 47 18L6 18 6 11C6 10.4 6.4 10 7 10ZM10 12C9.4 12 9 12.4 9 13L9 15C9 15.6 9.4 16 10 16 10.6 16 11 15.6 11 15L11 13C11 12.4 10.6 12 10 12ZM15 12C14.4 12 14 12.4 14 13L14 15C14 15.6 14.4 16 15 16 15.6 16 16 15.6 16 15L16 13C16 12.4 15.6 12 15 12ZM20 12C19.4 12 19 12.4 19 13L19 15C19 15.6 19.4 16 20 16 20.6 16 21 15.6 21 15L21 13C21 12.4 20.6 12 20 12ZM25 12C24.4 12 24 12.4 24 13L24 15C24 15.6 24.4 16 25 16 25.6 16 26 15.6 26 15L26 13C26 12.4 25.6 12 25 12ZM30 12C29.4 12 29 12.4 29 13L29 15C29 15.6 29.4 16 30 16 30.6 16 31 15.6 31 15L31 13C31 12.4 30.6 12 30 12ZM35 12C34.4 12 34 12.4 34 13L34 15C34 15.6 34.4 16 35 16 35.6 16 36 15.6 36 15L36 13C36 12.4 35.6 12 35 12ZM40 12C39.4 12 39 12.4 39 13L39 15C39 15.6 39.4 16 40 16 40.6 16 41 15.6 41 15L41 13C41 12.4 40.6 12 40 12ZM45 12C44.4 12 44 12.4 44 13L44 15C44 15.6 44.4 16 45 16 45.6 16 46 15.6 46 15L46 13C46 12.4 45.6 12 45 12ZM50 12C49.4 12 49 12.4 49 13L49 15C49 15.6 49.4 16 50 16 50.6 16 51 15.6 51 15L51 13C51 12.4 50.6 12 50 12ZM55 12C54.4 12 54 12.4 54 13L54 15C54 15.6 54.4 16 55 16 55.6 16 56 15.6 56 15L56 13C56 12.4 55.6 12 55 12ZM51 18C50.4 18 50 18.4 50 19 50 19.6 50.4 20 51 20L55 20C55.6 20 56 19.6 56 19 56 18.4 55.6 18 55 18ZM49 27.8C49.6 27.8 50.2 28.4 50.2 29 50.2 29.6 49.6 30.2 49 30.2 48.4 30.2 47.8 29.6 47.8 29 47.8 28.4 48.4 27.8 49 27.8ZM32 33.9C32.6 33.9 33.1 34.4 33.1 35 33.1 35.6 32.6 36.1 32 36.1 31.4 36.1 30.9 35.6 30.9 35 30.9 34.4 31.4 33.9 32 33.9ZM13 39.8C13.6 39.8 14.2 40.4 14.2 41 14.2 41.6 13.6 42.2 13 42.2 12.4 42.2 11.8 41.6 11.8 41 11.8 40.4 12.4 39.8 13 39.8ZM40 39.8C40.6 39.8 41.2 40.4 41.2 41 41.2 41.6 40.6 42.2 40 42.2 39.4 42.2 38.8 41.6 38.8 41 38.8 40.4 39.4 39.8 40 39.8ZM21 42.8C21.6 42.8 22.2 43.4 22.2 44 22.2 44.6 21.6 45.2 21 45.2 20.4 45.2 19.8 44.6 19.8 44 19.8 43.4 20.4 42.8 21 42.8Z"/></svg>
